<svg width="902" height="274" viewBox="0 0 902 274" fill="none" xmlns="http://www.w3.org/2000/svg">
<path fill-rule="evenodd" clip-rule="evenodd" d="M131.443 7.30005C91.1994 7.30005 60.1337 42.6897 65.3484 82.5935L73.1556 142.335L11.529 104.391C5.46809 100.659 -1.88166 106.079 0.438772 112.808C14.6964 154.152 36.139 162.007 43.6526 162.965C45.1692 163.159 45.0743 163.257 44.4533 163.9C44.1768 164.186 43.7959 164.58 43.4066 165.139C39.9746 170.063 37.9758 181.124 79.7507 188.695C83.5029 202.235 92.3304 213.502 103.949 220.489L94.6445 240.67C87.6184 255.91 98.7503 273.3 115.531 273.3H146.52C162.476 273.3 173.585 257.45 168.14 242.451L160.046 220.155C171.338 213.179 179.916 202.13 183.639 188.899C226.589 181.324 224.585 170.107 221.122 165.139C220.733 164.58 220.352 164.186 220.075 163.9L220.075 163.9C219.454 163.257 219.36 163.159 220.876 162.965C228.39 162.007 249.832 154.152 264.09 112.808C266.41 106.079 259.061 100.659 253 104.391L189.962 143.205L197.584 82.224C202.557 42.44 171.536 7.30005 131.443 7.30005Z" fill="black"/>
<path fill-rule="evenodd" clip-rule="evenodd" d="M132.325 100.692C126.856 107.837 117.956 110.342 107.906 110.342C91.2775 110.342 77.7975 103.483 77.7975 80.0995C77.7975 56.7157 91.2775 25.6622 107.906 25.6622C117.956 25.6622 126.856 37.0051 132.325 51.1425C137.708 37.0051 146.469 25.6622 156.362 25.6622C172.731 25.6622 186 56.7157 186 80.0995C186 103.483 172.731 110.342 156.362 110.342C146.469 110.342 137.708 107.837 132.325 100.692Z" fill="url(#paint0_linear_2_109)"/>
<path d="M133.67 71.6978C133.67 84.9716 124.741 88.8651 113.727 88.8651C102.713 88.8651 93.7837 84.9716 93.7837 71.6978C93.7837 58.4241 102.713 40.7967 113.727 40.7967C124.741 40.7967 133.67 58.4241 133.67 71.6978Z" fill="white"/>
<path d="M125.488 74.6199C125.488 81.6804 120.452 83.7514 114.238 83.7514C108.025 83.7514 102.988 81.6804 102.988 74.6199C102.988 67.5594 108.025 58.1831 114.238 58.1831C120.452 58.1831 125.488 67.5594 125.488 74.6199Z" fill="#020403"/>
<path d="M112.193 65.4884C112.193 67.7478 110.59 68.4105 108.613 68.4105C106.636 68.4105 105.034 67.7478 105.034 65.4884C105.034 63.229 106.636 60.2286 108.613 60.2286C110.59 60.2286 112.193 63.229 112.193 65.4884Z" fill="white"/>
<path d="M170.489 71.6978C170.489 84.9716 161.789 88.8651 151.057 88.8651C140.325 88.8651 131.625 84.9716 131.625 71.6978C131.625 58.4241 140.325 40.7967 151.057 40.7967C161.789 40.7967 170.489 58.4241 170.489 71.6978Z" fill="white"/>
<path d="M159.239 74.6199C159.239 81.6804 154.66 83.7514 149.011 83.7514C143.363 83.7514 138.784 81.6804 138.784 74.6199C138.784 67.5594 143.363 58.1831 149.011 58.1831C154.66 58.1831 159.239 67.5594 159.239 74.6199Z" fill="#020403"/>
<path d="M146.966 65.4884C146.966 67.7478 145.363 68.4105 143.386 68.4105C141.409 68.4105 139.807 67.7478 139.807 65.4884C139.807 63.229 141.409 60.2286 143.386 60.2286C145.363 60.2286 146.966 63.229 146.966 65.4884Z" fill="white"/>
<path fill-rule="evenodd" clip-rule="evenodd" d="M99.1399 85.3051L129.209 69.3832C131.597 68.1189 134.461 68.1452 136.826 69.453L165.542 85.3392C169.97 87.7891 171.04 93.6839 167.754 97.5333L161.988 104.288L139.252 142.311C136.182 147.444 128.77 147.517 125.601 142.444L99.8401 101.209C99.7132 101.006 99.5966 100.799 99.49 100.589L96.9129 97.6998C93.4569 93.8246 94.5511 87.7349 99.1399 85.3051Z" fill="url(#paint1_linear_2_109)"/>
<path d="M161.238 97.6718L150.034 119.547L163.229 98.8118C163.716 98.0473 163.166 97.047 162.26 97.047C161.829 97.047 161.435 97.2883 161.238 97.6718Z" fill="#DB7F2A"/>
<path d="M102.011 96.649L113.216 118.524L100.02 97.7889C99.5339 97.0245 100.083 96.0242 100.989 96.0242C101.42 96.0242 101.815 96.2654 102.011 96.649Z" fill="#DB7F2A"/>
<path d="M130.602 132.039C130.602 133.451 129.686 133.865 128.557 133.865C127.427 133.865 126.511 133.451 126.511 132.039C126.511 130.627 127.427 128.752 128.557 128.752C129.686 128.752 130.602 130.627 130.602 132.039Z" fill="#DB7F2A"/>
<path d="M137.761 132.039C137.761 133.451 136.845 133.865 135.716 133.865C134.586 133.865 133.67 133.451 133.67 132.039C133.67 130.627 134.586 128.752 135.716 128.752C136.845 128.752 137.761 130.627 137.761 132.039Z" fill="#DB7F2A"/>
<path d="M173.793 220.612C173.217 223.674 170.147 225.59 167.143 224.762L148.328 219.576C147.538 219.359 146.891 218.792 146.57 218.038V218.038C145.817 216.266 147.117 214.3 149.042 214.3L168.558 214.3C171.895 214.3 174.41 217.333 173.793 220.612V220.612Z" fill="url(#paint2_linear_2_109)"/>
<path d="M90.1687 220.612C90.7449 223.674 93.815 225.59 96.819 224.762L115.633 219.576C116.424 219.359 117.071 218.792 117.392 218.038V218.038C118.145 216.266 116.845 214.3 114.92 214.3L95.4035 214.3C92.0669 214.3 89.5516 217.333 90.1687 220.612V220.612Z" fill="url(#paint3_linear_2_109)"/>
<path fill-rule="evenodd" clip-rule="evenodd" d="M778 40C789.046 40 798 31.0457 798 20C798 8.9543 789.046 0 778 0C766.954 0 758 8.9543 758 20C758 31.0457 766.954 40 778 40ZM375.261 48.76C411.561 48.76 437.521 74.94 437.521 111.9C437.521 149.08 411.561 175.48 375.261 175.48C364.481 175.48 354.581 172.62 346.221 167.56V180.467C346.221 199.097 331.118 214.2 312.488 214.2C308.762 214.2 305.741 211.179 305.741 207.453V57.7577C305.741 54.854 308.095 52.5 310.999 52.5H322.953C329.557 52.5 335.626 56.1361 338.741 61.96C348.421 53.6 360.961 48.76 375.261 48.76ZM369.761 139.18C384.941 139.18 396.381 127.52 396.381 111.9C396.381 96.5 384.941 84.84 369.761 84.84C354.361 84.84 343.141 96.5 343.141 111.9C343.141 127.52 354.361 139.18 369.761 139.18ZM547.872 61.74C550.416 56.1146 556.019 52.5 562.193 52.5H576.516C579.893 52.5 582.632 55.2382 582.632 58.6158V166.227C582.632 169.029 580.361 171.3 577.559 171.3H560.022C554.526 171.3 549.565 168.006 547.432 162.94C537.752 170.86 525.432 175.26 511.572 175.26C475.272 175.26 449.312 148.86 449.312 111.9C449.312 75.16 475.272 48.98 511.572 48.98C525.652 48.98 538.192 53.6 547.872 61.74ZM517.072 139.18C532.472 139.18 543.692 127.52 543.692 111.9C543.692 96.5 532.472 85.06 517.072 85.06C501.672 85.06 490.452 96.5 490.452 111.9C490.452 127.52 501.672 139.18 517.072 139.18ZM715.13 52.5913C708.124 52.5353 701.677 56.4083 698.436 62.62C688.316 54.04 675.336 48.76 661.036 48.76C626.936 48.76 601.636 74.72 601.636 108.6C601.636 142.92 626.936 168.22 661.036 168.22C672.476 168.22 683.036 164.92 692.056 159.42V162.94C692.056 177.02 681.056 185.82 667.196 185.82C660.043 185.82 652.775 183.523 648.213 179.261C645.135 176.384 641.508 173.5 637.295 173.5H617.078C610.786 173.5 605.997 179.311 608.473 185.096C617.523 206.244 638.889 218.6 667.636 218.6C706.796 218.6 731.216 195.5 731.216 158.32V58.7123C731.216 55.3951 728.541 52.6986 725.224 52.6721L715.13 52.5913ZM693.156 108.6C693.156 123.78 682.596 134.56 667.856 134.56C652.896 134.56 642.336 123.78 642.336 108.6C642.336 93.64 653.116 82.64 667.856 82.64C682.596 82.64 693.156 93.64 693.156 108.6ZM767.128 171.3C761.605 171.3 757.128 166.823 757.128 161.3V62.5C757.128 56.9772 761.605 52.5 767.128 52.5H788.048C793.57 52.5 798.048 56.9772 798.048 62.5V161.3C798.048 166.823 793.571 171.3 788.048 171.3H767.128ZM891.169 52.06H890.169C876.089 52.06 865.969 56.02 857.609 65.7C853.708 57.6284 845.533 52.5 836.568 52.5H828.89C826.04 52.5 823.729 54.8106 823.729 57.6608V161.3C823.729 166.823 828.206 171.3 833.729 171.3H854.649C860.172 171.3 864.649 166.823 864.649 161.3V111.02C864.649 95.84 870.809 89.46 885.109 89.46H891.169C896.692 89.46 901.169 84.9829 901.169 79.46V62.06C901.169 56.5372 896.692 52.06 891.169 52.06Z" fill="#101010"/>
<defs>
<linearGradient id="paint0_linear_2_109" x1="156.362" y1="25.6622" x2="156.362" y2="110.342" gradientUnits="userSpaceOnUse">
<stop stop-color="#797777"/>
<stop offset="0.650453" stop-color="#282828"/>
</linearGradient>
<linearGradient id="paint1_linear_2_109" x1="136.758" y1="83.6421" x2="134.978" y2="118.414" gradientUnits="userSpaceOnUse">
<stop stop-color="#FAB148"/>
<stop offset="1" stop-color="#EC913C"/>
</linearGradient>
<linearGradient id="paint2_linear_2_109" x1="158.183" y1="223.956" x2="158.289" y2="218.577" gradientUnits="userSpaceOnUse">
<stop stop-color="#FAB148"/>
<stop offset="1" stop-color="#EC913C"/>
</linearGradient>
<linearGradient id="paint3_linear_2_109" x1="105.779" y1="223.956" x2="105.673" y2="218.577" gradientUnits="userSpaceOnUse">
<stop stop-color="#FAB148"/>
<stop offset="1" stop-color="#EC913C"/>
</linearGradient>
</defs>
</svg>
