<svg width="548" height="548" viewBox="0 0 548 548" fill="none" xmlns="http://www.w3.org/2000/svg">
<rect width="548" height="548" rx="70" fill="url(#paint0_linear_1_55)"/>
<path fill-rule="evenodd" clip-rule="evenodd" d="M274.985 312.367C255.924 337.268 224.906 346 189.88 346C131.926 346 84.9445 322.094 84.9445 240.596C84.9445 159.098 131.926 50.8696 189.88 50.8696C224.906 50.8696 255.924 90.4026 274.985 139.675C293.748 90.4026 324.281 50.8696 358.76 50.8696C415.808 50.8696 462.055 159.098 462.055 240.596C462.055 322.094 415.808 346 358.76 346C324.281 346 293.748 337.268 274.985 312.367Z" fill="url(#paint1_linear_1_55)"/>
<path d="M277.379 213.126C277.379 260.261 246.116 274.087 207.551 274.087C168.987 274.087 137.724 260.261 137.724 213.126C137.724 165.991 168.987 103.397 207.551 103.397C246.116 103.397 277.379 165.991 277.379 213.126Z" fill="white"/>
<path d="M248.931 223.656C248.931 248.652 231.563 255.984 210.138 255.984C188.713 255.984 171.344 248.652 171.344 223.656C171.344 198.66 188.713 165.466 210.138 165.466C231.563 165.466 248.931 198.66 248.931 223.656Z" fill="#020403"/>
<path d="M202.379 190.589C202.379 199.159 196.59 201.673 189.448 201.673C182.306 201.673 176.517 199.159 176.517 190.589C176.517 182.019 182.306 170.638 189.448 170.638C196.59 170.638 202.379 182.019 202.379 190.589Z" fill="white"/>
<path d="M409.277 213.126C409.277 260.261 378.592 274.087 340.742 274.087C302.891 274.087 272.207 260.261 272.207 213.126C272.207 165.991 302.891 103.397 340.742 103.397C378.592 103.397 409.277 165.991 409.277 213.126Z" fill="white"/>
<path d="M370.483 223.656C370.483 248.652 353.694 255.984 332.983 255.984C312.272 255.984 295.483 248.652 295.483 223.656C295.483 198.66 312.272 165.466 332.983 165.466C353.694 165.466 370.483 198.66 370.483 223.656Z" fill="#020403"/>
<path d="M326.517 188.927C326.517 196.782 320.728 199.087 313.586 199.087C306.445 199.087 300.655 196.782 300.655 188.927C300.655 181.071 306.445 170.638 313.586 170.638C320.728 170.638 326.517 181.071 326.517 188.927Z" fill="white"/>
<path fill-rule="evenodd" clip-rule="evenodd" d="M148.472 264.427L266.71 201.82C272.978 198.501 280.497 198.57 286.703 202.003L399.704 264.517C411.329 270.948 414.136 286.422 405.511 296.526L379.269 327.269L287.575 480.613C281.82 490.239 267.922 490.374 261.98 480.863L157.537 313.683L142.626 296.964C133.554 286.791 136.427 270.806 148.472 264.427Z" fill="url(#paint2_linear_1_55)"/>
<path d="M269.621 426.12C269.621 432.547 265.568 434.433 260.569 434.433C255.57 434.433 251.517 432.547 251.517 426.12C251.517 419.692 255.57 411.157 260.569 411.157C265.568 411.157 269.621 419.692 269.621 426.12Z" fill="#DB7F2A"/>
<path d="M300.655 426.12C300.655 432.547 296.603 434.433 291.604 434.433C286.604 434.433 282.552 432.547 282.552 426.12C282.552 419.692 286.604 411.157 291.604 411.157C296.603 411.157 300.655 419.692 300.655 426.12Z" fill="#DB7F2A"/>
<path d="M382.996 295.973L347 365L389.329 299.665C390.911 297.224 389.159 294 386.25 294C384.882 294 383.628 294.76 382.996 295.973Z" fill="#DB7F2A"/>
<path d="M157.785 295.746L193 357L151.933 299.506C150.287 297.201 151.934 294 154.766 294C156.012 294 157.163 294.666 157.785 295.746Z" fill="#DB7F2A"/>
<rect width="548" height="548" rx="70" stroke="black"/>
<defs>
<linearGradient id="paint0_linear_1_55" x1="274" y1="0" x2="274" y2="548" gradientUnits="userSpaceOnUse">
<stop offset="0.016412" stop-color="#282828"/>
<stop offset="0.756106"/>
</linearGradient>
<linearGradient id="paint1_linear_1_55" x1="358.76" y1="50.8696" x2="358.76" y2="346" gradientUnits="userSpaceOnUse">
<stop stop-color="#878787"/>
<stop offset="1" stop-color="#282828"/>
</linearGradient>
<linearGradient id="paint2_linear_1_55" x1="290.932" y1="255.565" x2="284.201" y2="388.277" gradientUnits="userSpaceOnUse">
<stop stop-color="#FAB148"/>
<stop offset="1" stop-color="#EC913C"/>
</linearGradient>
</defs>
</svg>
